<mxfile host="app.diagrams.net" modified="2023-08-08T07:48:10.008Z" agent="Mozilla/5.0 (X11; Ubuntu; Linux x86_64; rv:105.0) Gecko/20100101 Firefox/105.0" etag="P1eXpz6Ol7aQzPuqktTQ" version="21.6.6" type="device">
  <diagram name="Page-1" id="aGrNsAUD6rLRG3-fpc4p">
    <mxGraphModel dx="1367" dy="795" grid="1" gridSize="10" guides="1" tooltips="1" connect="1" arrows="1" fold="1" page="1" pageScale="1" pageWidth="850" pageHeight="1100" math="0" shadow="0">
      <root>
        <mxCell id="0" />
        <mxCell id="1" parent="0" />
        <mxCell id="Dw3qF6tHwgRVVZFkppPR-71" value="" style="rounded=0;whiteSpace=wrap;html=1;strokeWidth=3;" parent="1" vertex="1">
          <mxGeometry x="80" y="400" width="680" height="80" as="geometry" />
        </mxCell>
        <mxCell id="Dw3qF6tHwgRVVZFkppPR-72" value="" style="rounded=0;whiteSpace=wrap;html=1;strokeWidth=3;fillColor=#babdb6;" parent="1" vertex="1">
          <mxGeometry x="80" y="400" width="170" height="80" as="geometry" />
        </mxCell>
        <mxCell id="Dw3qF6tHwgRVVZFkppPR-73" value="" style="rounded=0;whiteSpace=wrap;html=1;strokeWidth=3;" parent="1" vertex="1">
          <mxGeometry x="250" y="400" width="220" height="80" as="geometry" />
        </mxCell>
        <mxCell id="Dw3qF6tHwgRVVZFkppPR-74" value="" style="rounded=0;whiteSpace=wrap;html=1;strokeWidth=3;fillColor=#babdb6;" parent="1" vertex="1">
          <mxGeometry x="470" y="400" width="170" height="80" as="geometry" />
        </mxCell>
        <mxCell id="Dw3qF6tHwgRVVZFkppPR-75" value="&lt;div&gt;&lt;font style=&quot;font-size: 24px;&quot;&gt;Allocated&lt;/font&gt;&lt;/div&gt;&lt;div&gt;&lt;font style=&quot;font-size: 24px;&quot;&gt;memory&lt;br&gt;&lt;/font&gt;&lt;/div&gt;&lt;font size=&quot;3&quot;&gt;&lt;br&gt;&lt;/font&gt;" style="text;html=1;strokeColor=none;fillColor=none;align=center;verticalAlign=middle;whiteSpace=wrap;rounded=0;" parent="1" vertex="1">
          <mxGeometry x="95" y="432" width="140" height="30" as="geometry" />
        </mxCell>
        <mxCell id="Dw3qF6tHwgRVVZFkppPR-76" value="&lt;font style=&quot;font-size: 24px;&quot;&gt;Free&lt;/font&gt;&lt;br&gt;&lt;div&gt;&lt;font style=&quot;font-size: 24px;&quot;&gt;memory&lt;br&gt;&lt;/font&gt;&lt;/div&gt;&lt;font size=&quot;3&quot;&gt;&lt;br&gt;&lt;/font&gt;" style="text;html=1;strokeColor=none;fillColor=none;align=center;verticalAlign=middle;whiteSpace=wrap;rounded=0;" parent="1" vertex="1">
          <mxGeometry x="290" y="432" width="140" height="30" as="geometry" />
        </mxCell>
        <mxCell id="Dw3qF6tHwgRVVZFkppPR-77" value="&lt;div&gt;&lt;font style=&quot;font-size: 24px;&quot;&gt;Allocated&lt;/font&gt;&lt;/div&gt;&lt;div&gt;&lt;font style=&quot;font-size: 24px;&quot;&gt;memory&lt;br&gt;&lt;/font&gt;&lt;/div&gt;&lt;font size=&quot;3&quot;&gt;&lt;br&gt;&lt;/font&gt;" style="text;html=1;strokeColor=none;fillColor=none;align=center;verticalAlign=middle;whiteSpace=wrap;rounded=0;" parent="1" vertex="1">
          <mxGeometry x="485" y="432" width="140" height="30" as="geometry" />
        </mxCell>
        <mxCell id="Dw3qF6tHwgRVVZFkppPR-78" value="&lt;font style=&quot;font-size: 24px;&quot;&gt;Free&lt;/font&gt;&lt;br&gt;&lt;div&gt;&lt;font style=&quot;font-size: 24px;&quot;&gt;memory&lt;br&gt;&lt;/font&gt;&lt;/div&gt;&lt;font size=&quot;3&quot;&gt;&lt;br&gt;&lt;/font&gt;" style="text;html=1;strokeColor=none;fillColor=none;align=center;verticalAlign=middle;whiteSpace=wrap;rounded=0;" parent="1" vertex="1">
          <mxGeometry x="630" y="432" width="140" height="30" as="geometry" />
        </mxCell>
        <mxCell id="Dw3qF6tHwgRVVZFkppPR-79" value="" style="endArrow=none;html=1;rounded=0;strokeWidth=3;entryX=0;entryY=0;entryDx=0;entryDy=0;" parent="1" target="Dw3qF6tHwgRVVZFkppPR-72" edge="1">
          <mxGeometry width="50" height="50" relative="1" as="geometry">
            <mxPoint x="20" y="400" as="sourcePoint" />
            <mxPoint x="470" y="430" as="targetPoint" />
          </mxGeometry>
        </mxCell>
        <mxCell id="Dw3qF6tHwgRVVZFkppPR-80" value="" style="endArrow=none;html=1;rounded=0;strokeWidth=3;entryX=0;entryY=0;entryDx=0;entryDy=0;" parent="1" edge="1">
          <mxGeometry width="50" height="50" relative="1" as="geometry">
            <mxPoint x="20" y="480" as="sourcePoint" />
            <mxPoint x="80" y="480" as="targetPoint" />
          </mxGeometry>
        </mxCell>
        <mxCell id="Dw3qF6tHwgRVVZFkppPR-81" value="" style="endArrow=none;dashed=1;html=1;dashPattern=1 3;strokeWidth=3;rounded=0;" parent="1" edge="1">
          <mxGeometry width="50" height="50" relative="1" as="geometry">
            <mxPoint x="30" y="439.5" as="sourcePoint" />
            <mxPoint x="60" y="439.5" as="targetPoint" />
          </mxGeometry>
        </mxCell>
        <mxCell id="Dw3qF6tHwgRVVZFkppPR-82" value="" style="endArrow=none;html=1;rounded=0;strokeWidth=3;entryX=0;entryY=0;entryDx=0;entryDy=0;" parent="1" edge="1">
          <mxGeometry width="50" height="50" relative="1" as="geometry">
            <mxPoint x="760" y="400" as="sourcePoint" />
            <mxPoint x="820" y="400" as="targetPoint" />
          </mxGeometry>
        </mxCell>
        <mxCell id="Dw3qF6tHwgRVVZFkppPR-83" value="" style="endArrow=none;html=1;rounded=0;strokeWidth=3;entryX=0;entryY=0;entryDx=0;entryDy=0;" parent="1" edge="1">
          <mxGeometry width="50" height="50" relative="1" as="geometry">
            <mxPoint x="760" y="480" as="sourcePoint" />
            <mxPoint x="820" y="480" as="targetPoint" />
          </mxGeometry>
        </mxCell>
        <mxCell id="Dw3qF6tHwgRVVZFkppPR-84" value="" style="endArrow=none;dashed=1;html=1;dashPattern=1 3;strokeWidth=3;rounded=0;" parent="1" edge="1">
          <mxGeometry width="50" height="50" relative="1" as="geometry">
            <mxPoint x="780" y="439.5" as="sourcePoint" />
            <mxPoint x="814" y="439.5" as="targetPoint" />
          </mxGeometry>
        </mxCell>
        <mxCell id="E0XQieNjKO0GFl80i_B4-1" value="" style="endArrow=classic;startArrow=classic;html=1;rounded=0;strokeWidth=3;" edge="1" parent="1">
          <mxGeometry width="50" height="50" relative="1" as="geometry">
            <mxPoint x="80" y="520" as="sourcePoint" />
            <mxPoint x="760" y="520" as="targetPoint" />
          </mxGeometry>
        </mxCell>
        <mxCell id="E0XQieNjKO0GFl80i_B4-2" value="&lt;font style=&quot;font-size: 24px;&quot;&gt;4MB&lt;/font&gt;" style="text;html=1;strokeColor=none;fillColor=none;align=center;verticalAlign=middle;whiteSpace=wrap;rounded=0;" vertex="1" parent="1">
          <mxGeometry x="310" y="526" width="140" height="30" as="geometry" />
        </mxCell>
        <mxCell id="E0XQieNjKO0GFl80i_B4-3" value="" style="endArrow=classic;startArrow=classic;html=1;rounded=0;strokeWidth=3;" edge="1" parent="1">
          <mxGeometry width="50" height="50" relative="1" as="geometry">
            <mxPoint x="79" y="380" as="sourcePoint" />
            <mxPoint x="249" y="380" as="targetPoint" />
          </mxGeometry>
        </mxCell>
        <mxCell id="E0XQieNjKO0GFl80i_B4-4" value="&lt;font style=&quot;font-size: 24px;&quot;&gt;1 MB&lt;br&gt;&lt;/font&gt;" style="text;html=1;strokeColor=none;fillColor=none;align=center;verticalAlign=middle;whiteSpace=wrap;rounded=0;" vertex="1" parent="1">
          <mxGeometry x="90" y="340" width="140" height="30" as="geometry" />
        </mxCell>
        <mxCell id="E0XQieNjKO0GFl80i_B4-5" value="" style="endArrow=classic;startArrow=classic;html=1;rounded=0;strokeWidth=3;" edge="1" parent="1">
          <mxGeometry width="50" height="50" relative="1" as="geometry">
            <mxPoint x="250" y="380" as="sourcePoint" />
            <mxPoint x="470" y="380" as="targetPoint" />
          </mxGeometry>
        </mxCell>
        <mxCell id="E0XQieNjKO0GFl80i_B4-6" value="&lt;font style=&quot;font-size: 24px;&quot;&gt;1.5 MB&lt;br&gt;&lt;/font&gt;" style="text;html=1;strokeColor=none;fillColor=none;align=center;verticalAlign=middle;whiteSpace=wrap;rounded=0;" vertex="1" parent="1">
          <mxGeometry x="280" y="340" width="140" height="30" as="geometry" />
        </mxCell>
        <mxCell id="E0XQieNjKO0GFl80i_B4-7" value="" style="endArrow=classic;startArrow=classic;html=1;rounded=0;strokeWidth=3;" edge="1" parent="1">
          <mxGeometry width="50" height="50" relative="1" as="geometry">
            <mxPoint x="470" y="380" as="sourcePoint" />
            <mxPoint x="640" y="380" as="targetPoint" />
          </mxGeometry>
        </mxCell>
        <mxCell id="E0XQieNjKO0GFl80i_B4-8" value="&lt;font style=&quot;font-size: 24px;&quot;&gt;1 MB&lt;br&gt;&lt;/font&gt;" style="text;html=1;strokeColor=none;fillColor=none;align=center;verticalAlign=middle;whiteSpace=wrap;rounded=0;" vertex="1" parent="1">
          <mxGeometry x="485" y="340" width="140" height="30" as="geometry" />
        </mxCell>
        <mxCell id="E0XQieNjKO0GFl80i_B4-9" value="" style="endArrow=classic;startArrow=classic;html=1;rounded=0;strokeWidth=3;" edge="1" parent="1">
          <mxGeometry width="50" height="50" relative="1" as="geometry">
            <mxPoint x="640" y="380" as="sourcePoint" />
            <mxPoint x="760" y="380" as="targetPoint" />
          </mxGeometry>
        </mxCell>
        <mxCell id="E0XQieNjKO0GFl80i_B4-10" value="&lt;font style=&quot;font-size: 24px;&quot;&gt;0.5 MB&lt;br&gt;&lt;/font&gt;" style="text;html=1;strokeColor=none;fillColor=none;align=center;verticalAlign=middle;whiteSpace=wrap;rounded=0;" vertex="1" parent="1">
          <mxGeometry x="625" y="340" width="140" height="30" as="geometry" />
        </mxCell>
      </root>
    </mxGraphModel>
  </diagram>
</mxfile>
